{
	"patcher" : 	{
		"fileversion" : 1,
		"appversion" : 		{
			"major" : 8,
			"minor" : 0,
			"revision" : 4,
			"architecture" : "x64",
			"modernui" : 1
		}
,
		"classnamespace" : "box",
		"rect" : [ 34.0, 79.0, 1612.0, 937.0 ],
		"bglocked" : 0,
		"openinpresentation" : 0,
		"default_fontsize" : 12.0,
		"default_fontface" : 0,
		"default_fontname" : "Arial",
		"gridonopen" : 1,
		"gridsize" : [ 15.0, 15.0 ],
		"gridsnaponopen" : 1,
		"objectsnaponopen" : 1,
		"statusbarvisible" : 2,
		"toolbarvisible" : 1,
		"lefttoolbarpinned" : 0,
		"toptoolbarpinned" : 0,
		"righttoolbarpinned" : 0,
		"bottomtoolbarpinned" : 0,
		"toolbars_unpinned_last_save" : 0,
		"tallnewobj" : 0,
		"boxanimatetime" : 200,
		"enablehscroll" : 1,
		"enablevscroll" : 1,
		"devicewidth" : 0.0,
		"description" : "",
		"digest" : "",
		"tags" : "",
		"style" : "",
		"subpatcher_template" : "",
		"boxes" : [ 			{
				"box" : 				{
					"id" : "obj-60",
					"linecount" : 4,
					"maxclass" : "comment",
					"numinlets" : 1,
					"numoutlets" : 0,
					"patching_rect" : [ 456.0, 16.0, 206.0, 60.0 ],
					"text" : "playsback melodic fragments from the midi file. \nIntensity sets tempo and number of notes voiced in the chord."
				}

			}
, 			{
				"box" : 				{
					"id" : "obj-57",
					"maxclass" : "newobj",
					"numinlets" : 0,
					"numoutlets" : 1,
					"outlettype" : [ "" ],
					"patching_rect" : [ 532.0, 343.0, 70.0, 22.0 ],
					"text" : "r rsintensity"
				}

			}
, 			{
				"box" : 				{
					"id" : "obj-56",
					"maxclass" : "button",
					"numinlets" : 1,
					"numoutlets" : 1,
					"outlettype" : [ "bang" ],
					"parameter_enable" : 0,
					"patching_rect" : [ 159.0, 37.0, 24.0, 24.0 ]
				}

			}
, 			{
				"box" : 				{
					"id" : "obj-54",
					"maxclass" : "comment",
					"numinlets" : 1,
					"numoutlets" : 0,
					"patching_rect" : [ 163.0, 16.0, 150.0, 20.0 ],
					"text" : "start"
				}

			}
, 			{
				"box" : 				{
					"id" : "obj-50",
					"maxclass" : "comment",
					"numinlets" : 1,
					"numoutlets" : 0,
					"patching_rect" : [ 70.0, 11.0, 150.0, 20.0 ],
					"text" : "enable"
				}

			}
, 			{
				"box" : 				{
					"id" : "obj-47",
					"maxclass" : "toggle",
					"numinlets" : 1,
					"numoutlets" : 1,
					"outlettype" : [ "int" ],
					"parameter_enable" : 0,
					"patching_rect" : [ 74.5, 33.0, 49.0, 49.0 ]
				}

			}
, 			{
				"box" : 				{
					"id" : "obj-43",
					"maxclass" : "newobj",
					"numinlets" : 2,
					"numoutlets" : 1,
					"outlettype" : [ "" ],
					"patching_rect" : [ 189.0, 154.0, 32.0, 22.0 ],
					"text" : "gate"
				}

			}
, 			{
				"box" : 				{
					"id" : "obj-42",
					"maxclass" : "newobj",
					"numinlets" : 0,
					"numoutlets" : 1,
					"outlettype" : [ "" ],
					"patching_rect" : [ 150.0, 596.0, 70.0, 22.0 ],
					"text" : "r rsintensity"
				}

			}
, 			{
				"box" : 				{
					"id" : "obj-41",
					"maxclass" : "newobj",
					"numinlets" : 1,
					"numoutlets" : 0,
					"patching_rect" : [ 380.0, 177.0, 72.0, 22.0 ],
					"text" : "s rsintensity"
				}

			}
, 			{
				"box" : 				{
					"id" : "obj-40",
					"maxclass" : "newobj",
					"numinlets" : 2,
					"numoutlets" : 1,
					"outlettype" : [ "" ],
					"patcher" : 					{
						"fileversion" : 1,
						"appversion" : 						{
							"major" : 8,
							"minor" : 0,
							"revision" : 4,
							"architecture" : "x64",
							"modernui" : 1
						}
,
						"classnamespace" : "box",
						"rect" : [ 59.0, 104.0, 980.0, 742.0 ],
						"bglocked" : 0,
						"openinpresentation" : 0,
						"default_fontsize" : 12.0,
						"default_fontface" : 0,
						"default_fontname" : "Arial",
						"gridonopen" : 1,
						"gridsize" : [ 15.0, 15.0 ],
						"gridsnaponopen" : 1,
						"objectsnaponopen" : 1,
						"statusbarvisible" : 2,
						"toolbarvisible" : 1,
						"lefttoolbarpinned" : 0,
						"toptoolbarpinned" : 0,
						"righttoolbarpinned" : 0,
						"bottomtoolbarpinned" : 0,
						"toolbars_unpinned_last_save" : 0,
						"tallnewobj" : 0,
						"boxanimatetime" : 200,
						"enablehscroll" : 1,
						"enablevscroll" : 1,
						"devicewidth" : 0.0,
						"description" : "",
						"digest" : "",
						"tags" : "",
						"style" : "",
						"subpatcher_template" : "",
						"boxes" : [ 							{
								"box" : 								{
									"comment" : "",
									"id" : "obj-3",
									"index" : 1,
									"maxclass" : "outlet",
									"numinlets" : 1,
									"numoutlets" : 0,
									"patching_rect" : [ 265.0, 499.0, 30.0, 30.0 ]
								}

							}
, 							{
								"box" : 								{
									"comment" : "",
									"id" : "obj-2",
									"index" : 2,
									"maxclass" : "inlet",
									"numinlets" : 0,
									"numoutlets" : 1,
									"outlettype" : [ "" ],
									"patching_rect" : [ 475.0, 67.0, 30.0, 30.0 ]
								}

							}
, 							{
								"box" : 								{
									"comment" : "",
									"id" : "obj-1",
									"index" : 1,
									"maxclass" : "inlet",
									"numinlets" : 0,
									"numoutlets" : 1,
									"outlettype" : [ "" ],
									"patching_rect" : [ 258.0, 126.0, 30.0, 30.0 ]
								}

							}
, 							{
								"box" : 								{
									"id" : "obj-35",
									"maxclass" : "newobj",
									"numinlets" : 2,
									"numoutlets" : 1,
									"outlettype" : [ "" ],
									"patching_rect" : [ 381.0, 370.0, 32.0, 22.0 ],
									"text" : "gate"
								}

							}
, 							{
								"box" : 								{
									"id" : "obj-34",
									"maxclass" : "newobj",
									"numinlets" : 2,
									"numoutlets" : 1,
									"outlettype" : [ "" ],
									"patching_rect" : [ 281.0, 370.0, 32.0, 22.0 ],
									"text" : "gate"
								}

							}
, 							{
								"box" : 								{
									"id" : "obj-33",
									"maxclass" : "newobj",
									"numinlets" : 2,
									"numoutlets" : 1,
									"outlettype" : [ "" ],
									"patching_rect" : [ 184.0, 363.0, 32.0, 22.0 ],
									"text" : "gate"
								}

							}
, 							{
								"box" : 								{
									"id" : "obj-31",
									"maxclass" : "message",
									"numinlets" : 2,
									"numoutlets" : 1,
									"outlettype" : [ "" ],
									"patching_rect" : [ 751.25, 241.0, 35.0, 22.0 ],
									"text" : "1 1 1"
								}

							}
, 							{
								"box" : 								{
									"id" : "obj-30",
									"maxclass" : "message",
									"numinlets" : 2,
									"numoutlets" : 1,
									"outlettype" : [ "" ],
									"patching_rect" : [ 627.5, 241.0, 35.0, 22.0 ],
									"text" : "0 1 0"
								}

							}
, 							{
								"box" : 								{
									"id" : "obj-29",
									"maxclass" : "message",
									"numinlets" : 2,
									"numoutlets" : 1,
									"outlettype" : [ "" ],
									"patching_rect" : [ 695.25, 241.0, 35.0, 22.0 ],
									"text" : "1 1 0"
								}

							}
, 							{
								"box" : 								{
									"id" : "obj-27",
									"maxclass" : "message",
									"numinlets" : 2,
									"numoutlets" : 1,
									"outlettype" : [ "" ],
									"patching_rect" : [ 568.0, 237.0, 35.0, 22.0 ],
									"text" : "0 0 0"
								}

							}
, 							{
								"box" : 								{
									"id" : "obj-25",
									"maxclass" : "newobj",
									"numinlets" : 5,
									"numoutlets" : 5,
									"outlettype" : [ "bang", "bang", "bang", "bang", "" ],
									"patching_rect" : [ 574.0, 199.0, 64.0, 22.0 ],
									"text" : "sel 0 1 2 3"
								}

							}
, 							{
								"box" : 								{
									"id" : "obj-17",
									"maxclass" : "number",
									"numinlets" : 1,
									"numoutlets" : 2,
									"outlettype" : [ "", "bang" ],
									"parameter_enable" : 0,
									"patching_rect" : [ 568.0, 100.0, 50.0, 22.0 ]
								}

							}
, 							{
								"box" : 								{
									"id" : "obj-12",
									"maxclass" : "newobj",
									"numinlets" : 6,
									"numoutlets" : 1,
									"outlettype" : [ "" ],
									"patching_rect" : [ 568.0, 153.0, 97.0, 22.0 ],
									"text" : "scale 0 127 0. 4."
								}

							}
, 							{
								"box" : 								{
									"id" : "obj-10",
									"maxclass" : "newobj",
									"numinlets" : 2,
									"numoutlets" : 2,
									"outlettype" : [ "", "" ],
									"patching_rect" : [ 568.0, 319.0, 69.0, 22.0 ],
									"text" : "zl scramble"
								}

							}
, 							{
								"box" : 								{
									"id" : "obj-205",
									"maxclass" : "newobj",
									"numinlets" : 1,
									"numoutlets" : 3,
									"outlettype" : [ "", "", "" ],
									"patching_rect" : [ 548.0, 363.0, 46.0, 22.0 ],
									"text" : "cycle 3"
								}

							}
, 							{
								"box" : 								{
									"id" : "obj-204",
									"maxclass" : "newobj",
									"numinlets" : 2,
									"numoutlets" : 1,
									"outlettype" : [ "" ],
									"patching_rect" : [ 381.0, 319.0, 34.0, 22.0 ],
									"text" : "pack"
								}

							}
, 							{
								"box" : 								{
									"id" : "obj-203",
									"maxclass" : "newobj",
									"numinlets" : 2,
									"numoutlets" : 1,
									"outlettype" : [ "" ],
									"patching_rect" : [ 281.0, 319.0, 34.0, 22.0 ],
									"text" : "pack"
								}

							}
, 							{
								"box" : 								{
									"id" : "obj-202",
									"maxclass" : "newobj",
									"numinlets" : 2,
									"numoutlets" : 1,
									"outlettype" : [ "" ],
									"patching_rect" : [ 184.0, 319.0, 34.0, 22.0 ],
									"text" : "pack"
								}

							}
, 							{
								"box" : 								{
									"id" : "obj-201",
									"maxclass" : "newobj",
									"numinlets" : 2,
									"numoutlets" : 1,
									"outlettype" : [ "" ],
									"patching_rect" : [ 92.0, 319.0, 34.0, 22.0 ],
									"text" : "pack"
								}

							}
, 							{
								"box" : 								{
									"id" : "obj-191",
									"maxclass" : "newobj",
									"numinlets" : 1,
									"numoutlets" : 12,
									"outlettype" : [ "", "int", "int", "", "int", "int", "", "int", "int", "", "int", "int" ],
									"patching_rect" : [ 50.0, 263.0, 372.0, 22.0 ],
									"text" : "unpack notes i i notes1 i i notes2 i i notes3 i i"
								}

							}
 ],
						"lines" : [ 							{
								"patchline" : 								{
									"destination" : [ "obj-191", 0 ],
									"source" : [ "obj-1", 0 ]
								}

							}
, 							{
								"patchline" : 								{
									"destination" : [ "obj-205", 0 ],
									"source" : [ "obj-10", 0 ]
								}

							}
, 							{
								"patchline" : 								{
									"destination" : [ "obj-25", 0 ],
									"source" : [ "obj-12", 0 ]
								}

							}
, 							{
								"patchline" : 								{
									"destination" : [ "obj-12", 0 ],
									"source" : [ "obj-17", 0 ]
								}

							}
, 							{
								"patchline" : 								{
									"destination" : [ "obj-201", 1 ],
									"source" : [ "obj-191", 2 ]
								}

							}
, 							{
								"patchline" : 								{
									"destination" : [ "obj-201", 0 ],
									"source" : [ "obj-191", 1 ]
								}

							}
, 							{
								"patchline" : 								{
									"destination" : [ "obj-202", 1 ],
									"source" : [ "obj-191", 5 ]
								}

							}
, 							{
								"patchline" : 								{
									"destination" : [ "obj-202", 0 ],
									"source" : [ "obj-191", 4 ]
								}

							}
, 							{
								"patchline" : 								{
									"destination" : [ "obj-203", 1 ],
									"source" : [ "obj-191", 8 ]
								}

							}
, 							{
								"patchline" : 								{
									"destination" : [ "obj-203", 0 ],
									"source" : [ "obj-191", 7 ]
								}

							}
, 							{
								"patchline" : 								{
									"destination" : [ "obj-204", 1 ],
									"source" : [ "obj-191", 11 ]
								}

							}
, 							{
								"patchline" : 								{
									"destination" : [ "obj-204", 0 ],
									"source" : [ "obj-191", 10 ]
								}

							}
, 							{
								"patchline" : 								{
									"destination" : [ "obj-17", 0 ],
									"source" : [ "obj-2", 0 ]
								}

							}
, 							{
								"patchline" : 								{
									"destination" : [ "obj-3", 0 ],
									"source" : [ "obj-201", 0 ]
								}

							}
, 							{
								"patchline" : 								{
									"destination" : [ "obj-33", 1 ],
									"source" : [ "obj-202", 0 ]
								}

							}
, 							{
								"patchline" : 								{
									"destination" : [ "obj-34", 1 ],
									"source" : [ "obj-203", 0 ]
								}

							}
, 							{
								"patchline" : 								{
									"destination" : [ "obj-35", 1 ],
									"source" : [ "obj-204", 0 ]
								}

							}
, 							{
								"patchline" : 								{
									"destination" : [ "obj-33", 0 ],
									"source" : [ "obj-205", 1 ]
								}

							}
, 							{
								"patchline" : 								{
									"destination" : [ "obj-34", 0 ],
									"source" : [ "obj-205", 2 ]
								}

							}
, 							{
								"patchline" : 								{
									"destination" : [ "obj-35", 0 ],
									"source" : [ "obj-205", 0 ]
								}

							}
, 							{
								"patchline" : 								{
									"destination" : [ "obj-27", 0 ],
									"source" : [ "obj-25", 0 ]
								}

							}
, 							{
								"patchline" : 								{
									"destination" : [ "obj-29", 0 ],
									"source" : [ "obj-25", 2 ]
								}

							}
, 							{
								"patchline" : 								{
									"destination" : [ "obj-30", 0 ],
									"source" : [ "obj-25", 1 ]
								}

							}
, 							{
								"patchline" : 								{
									"destination" : [ "obj-31", 0 ],
									"source" : [ "obj-25", 3 ]
								}

							}
, 							{
								"patchline" : 								{
									"destination" : [ "obj-10", 0 ],
									"source" : [ "obj-27", 0 ]
								}

							}
, 							{
								"patchline" : 								{
									"destination" : [ "obj-10", 0 ],
									"source" : [ "obj-29", 0 ]
								}

							}
, 							{
								"patchline" : 								{
									"destination" : [ "obj-10", 0 ],
									"source" : [ "obj-30", 0 ]
								}

							}
, 							{
								"patchline" : 								{
									"destination" : [ "obj-10", 0 ],
									"source" : [ "obj-31", 0 ]
								}

							}
, 							{
								"patchline" : 								{
									"destination" : [ "obj-3", 0 ],
									"source" : [ "obj-33", 0 ]
								}

							}
, 							{
								"patchline" : 								{
									"destination" : [ "obj-3", 0 ],
									"source" : [ "obj-34", 0 ]
								}

							}
, 							{
								"patchline" : 								{
									"destination" : [ "obj-3", 0 ],
									"source" : [ "obj-35", 0 ]
								}

							}
 ]
					}
,
					"patching_rect" : [ 91.0, 643.0, 78.0, 22.0 ],
					"saved_object_attributes" : 					{
						"description" : "",
						"digest" : "",
						"globalpatchername" : "",
						"tags" : ""
					}
,
					"text" : "p notespacer"
				}

			}
, 			{
				"box" : 				{
					"id" : "obj-169",
					"linecount" : 2,
					"maxclass" : "comment",
					"numinlets" : 1,
					"numoutlets" : 0,
					"patching_rect" : [ 512.0, 386.5, 150.0, 33.0 ],
					"text" : "sets speed of playback based on intensity"
				}

			}
, 			{
				"box" : 				{
					"id" : "obj-167",
					"maxclass" : "newobj",
					"numinlets" : 4,
					"numoutlets" : 2,
					"outlettype" : [ "bang", "int" ],
					"patcher" : 					{
						"fileversion" : 1,
						"appversion" : 						{
							"major" : 8,
							"minor" : 0,
							"revision" : 4,
							"architecture" : "x64",
							"modernui" : 1
						}
,
						"classnamespace" : "box",
						"rect" : [ 59.0, 104.0, 640.0, 480.0 ],
						"bglocked" : 0,
						"openinpresentation" : 0,
						"default_fontsize" : 12.0,
						"default_fontface" : 0,
						"default_fontname" : "Arial",
						"gridonopen" : 1,
						"gridsize" : [ 15.0, 15.0 ],
						"gridsnaponopen" : 1,
						"objectsnaponopen" : 1,
						"statusbarvisible" : 2,
						"toolbarvisible" : 1,
						"lefttoolbarpinned" : 0,
						"toptoolbarpinned" : 0,
						"righttoolbarpinned" : 0,
						"bottomtoolbarpinned" : 0,
						"toolbars_unpinned_last_save" : 0,
						"tallnewobj" : 0,
						"boxanimatetime" : 200,
						"enablehscroll" : 1,
						"enablevscroll" : 1,
						"devicewidth" : 0.0,
						"description" : "",
						"digest" : "",
						"tags" : "",
						"style" : "",
						"subpatcher_template" : "",
						"boxes" : [ 							{
								"box" : 								{
									"id" : "obj-154",
									"maxclass" : "newobj",
									"numinlets" : 2,
									"numoutlets" : 1,
									"outlettype" : [ "int" ],
									"patching_rect" : [ 337.75, 373.0, 29.5, 22.0 ],
									"text" : "/ 2"
								}

							}
, 							{
								"box" : 								{
									"id" : "obj-153",
									"maxclass" : "newobj",
									"numinlets" : 2,
									"numoutlets" : 1,
									"outlettype" : [ "int" ],
									"patching_rect" : [ 372.0, 373.0, 29.5, 22.0 ],
									"text" : "* 1"
								}

							}
, 							{
								"box" : 								{
									"id" : "obj-152",
									"maxclass" : "newobj",
									"numinlets" : 2,
									"numoutlets" : 1,
									"outlettype" : [ "int" ],
									"patching_rect" : [ 313.0, 373.0, 29.5, 22.0 ],
									"text" : "/ 4"
								}

							}
, 							{
								"box" : 								{
									"id" : "obj-151",
									"maxclass" : "newobj",
									"numinlets" : 2,
									"numoutlets" : 1,
									"outlettype" : [ "int" ],
									"patching_rect" : [ 398.0, 373.0, 29.5, 22.0 ],
									"text" : "* 2"
								}

							}
, 							{
								"box" : 								{
									"id" : "obj-150",
									"maxclass" : "newobj",
									"numinlets" : 2,
									"numoutlets" : 1,
									"outlettype" : [ "int" ],
									"patching_rect" : [ 442.0, 373.0, 29.5, 22.0 ],
									"text" : "* 3"
								}

							}
, 							{
								"box" : 								{
									"id" : "obj-149",
									"maxclass" : "newobj",
									"numinlets" : 2,
									"numoutlets" : 6,
									"outlettype" : [ "", "", "", "", "", "" ],
									"patching_rect" : [ 372.0, 315.0, 71.5, 22.0 ],
									"text" : "gate 6"
								}

							}
, 							{
								"box" : 								{
									"id" : "obj-144",
									"maxclass" : "newobj",
									"numinlets" : 2,
									"numoutlets" : 1,
									"outlettype" : [ "int" ],
									"patching_rect" : [ 414.0, 250.0, 29.5, 22.0 ],
									"text" : "+ 1"
								}

							}
, 							{
								"box" : 								{
									"id" : "obj-143",
									"maxclass" : "newobj",
									"numinlets" : 6,
									"numoutlets" : 1,
									"outlettype" : [ "" ],
									"patching_rect" : [ 414.0, 100.0, 90.0, 22.0 ],
									"text" : "scale 0 127 0 6"
								}

							}
, 							{
								"box" : 								{
									"id" : "obj-132",
									"maxclass" : "newobj",
									"numinlets" : 2,
									"numoutlets" : 1,
									"outlettype" : [ "int" ],
									"patching_rect" : [ 480.0, 373.0, 29.5, 22.0 ],
									"text" : "* 4"
								}

							}
, 							{
								"box" : 								{
									"id" : "obj-115",
									"maxclass" : "newobj",
									"numinlets" : 1,
									"numoutlets" : 2,
									"outlettype" : [ "bang", "int" ],
									"patching_rect" : [ 50.0, 325.0, 32.0, 22.0 ],
									"text" : "t b 0"
								}

							}
, 							{
								"box" : 								{
									"id" : "obj-114",
									"maxclass" : "newobj",
									"numinlets" : 2,
									"numoutlets" : 2,
									"outlettype" : [ "bang", "" ],
									"patching_rect" : [ 50.0, 285.0, 34.0, 22.0 ],
									"text" : "sel 1"
								}

							}
, 							{
								"box" : 								{
									"id" : "obj-50",
									"maxclass" : "button",
									"numinlets" : 1,
									"numoutlets" : 1,
									"outlettype" : [ "bang" ],
									"parameter_enable" : 0,
									"patching_rect" : [ 387.0, 188.0, 24.0, 24.0 ]
								}

							}
, 							{
								"box" : 								{
									"id" : "obj-44",
									"maxclass" : "toggle",
									"numinlets" : 1,
									"numoutlets" : 1,
									"outlettype" : [ "int" ],
									"parameter_enable" : 0,
									"patching_rect" : [ 328.0, 149.5, 24.0, 24.0 ]
								}

							}
, 							{
								"box" : 								{
									"id" : "obj-39",
									"maxclass" : "newobj",
									"numinlets" : 5,
									"numoutlets" : 4,
									"outlettype" : [ "int", "", "", "int" ],
									"patching_rect" : [ 328.0, 227.0, 61.0, 22.0 ],
									"text" : "counter"
								}

							}
, 							{
								"box" : 								{
									"id" : "obj-40",
									"maxclass" : "newobj",
									"numinlets" : 2,
									"numoutlets" : 1,
									"outlettype" : [ "bang" ],
									"patching_rect" : [ 328.0, 188.0, 49.0, 22.0 ],
									"text" : "metro 1"
								}

							}
, 							{
								"box" : 								{
									"id" : "obj-11",
									"maxclass" : "comment",
									"numinlets" : 1,
									"numoutlets" : 0,
									"patching_rect" : [ 442.0, 149.5, 150.0, 20.0 ],
									"text" : "Tempo"
								}

							}
, 							{
								"box" : 								{
									"comment" : "",
									"id" : "obj-161",
									"index" : 1,
									"maxclass" : "inlet",
									"numinlets" : 0,
									"numoutlets" : 1,
									"outlettype" : [ "" ],
									"patching_rect" : [ 65.0, 40.0, 30.0, 30.0 ]
								}

							}
, 							{
								"box" : 								{
									"comment" : "",
									"id" : "obj-162",
									"index" : 2,
									"maxclass" : "inlet",
									"numinlets" : 0,
									"numoutlets" : 1,
									"outlettype" : [ "int" ],
									"patching_rect" : [ 328.0, 40.0, 30.0, 30.0 ]
								}

							}
, 							{
								"box" : 								{
									"comment" : "",
									"id" : "obj-163",
									"index" : 3,
									"maxclass" : "inlet",
									"numinlets" : 0,
									"numoutlets" : 1,
									"outlettype" : [ "bang" ],
									"patching_rect" : [ 387.0, 40.0, 30.0, 30.0 ]
								}

							}
, 							{
								"box" : 								{
									"comment" : "",
									"id" : "obj-164",
									"index" : 4,
									"maxclass" : "inlet",
									"numinlets" : 0,
									"numoutlets" : 1,
									"outlettype" : [ "" ],
									"patching_rect" : [ 422.0, 40.0, 30.0, 30.0 ]
								}

							}
, 							{
								"box" : 								{
									"comment" : "",
									"id" : "obj-165",
									"index" : 1,
									"maxclass" : "outlet",
									"numinlets" : 1,
									"numoutlets" : 0,
									"patching_rect" : [ 50.0, 455.0, 30.0, 30.0 ]
								}

							}
, 							{
								"box" : 								{
									"comment" : "",
									"id" : "obj-166",
									"index" : 2,
									"maxclass" : "outlet",
									"numinlets" : 1,
									"numoutlets" : 0,
									"patching_rect" : [ 384.458312999999976, 455.0, 30.0, 30.0 ]
								}

							}
 ],
						"lines" : [ 							{
								"patchline" : 								{
									"destination" : [ "obj-115", 0 ],
									"source" : [ "obj-114", 0 ]
								}

							}
, 							{
								"patchline" : 								{
									"destination" : [ "obj-165", 0 ],
									"source" : [ "obj-115", 0 ]
								}

							}
, 							{
								"patchline" : 								{
									"destination" : [ "obj-44", 0 ],
									"source" : [ "obj-115", 1 ]
								}

							}
, 							{
								"patchline" : 								{
									"destination" : [ "obj-166", 0 ],
									"source" : [ "obj-132", 0 ]
								}

							}
, 							{
								"patchline" : 								{
									"destination" : [ "obj-144", 0 ],
									"source" : [ "obj-143", 0 ]
								}

							}
, 							{
								"patchline" : 								{
									"destination" : [ "obj-149", 0 ],
									"source" : [ "obj-144", 0 ]
								}

							}
, 							{
								"patchline" : 								{
									"destination" : [ "obj-132", 0 ],
									"source" : [ "obj-149", 5 ]
								}

							}
, 							{
								"patchline" : 								{
									"destination" : [ "obj-150", 0 ],
									"source" : [ "obj-149", 4 ]
								}

							}
, 							{
								"patchline" : 								{
									"destination" : [ "obj-151", 0 ],
									"source" : [ "obj-149", 3 ]
								}

							}
, 							{
								"patchline" : 								{
									"destination" : [ "obj-152", 0 ],
									"source" : [ "obj-149", 1 ]
								}

							}
, 							{
								"patchline" : 								{
									"destination" : [ "obj-152", 0 ],
									"source" : [ "obj-149", 0 ]
								}

							}
, 							{
								"patchline" : 								{
									"destination" : [ "obj-153", 0 ],
									"source" : [ "obj-149", 2 ]
								}

							}
, 							{
								"patchline" : 								{
									"destination" : [ "obj-166", 0 ],
									"source" : [ "obj-150", 0 ]
								}

							}
, 							{
								"patchline" : 								{
									"destination" : [ "obj-166", 0 ],
									"source" : [ "obj-151", 0 ]
								}

							}
, 							{
								"patchline" : 								{
									"destination" : [ "obj-166", 0 ],
									"source" : [ "obj-152", 0 ]
								}

							}
, 							{
								"patchline" : 								{
									"destination" : [ "obj-166", 0 ],
									"source" : [ "obj-153", 0 ]
								}

							}
, 							{
								"patchline" : 								{
									"destination" : [ "obj-166", 0 ],
									"source" : [ "obj-154", 0 ]
								}

							}
, 							{
								"patchline" : 								{
									"destination" : [ "obj-114", 1 ],
									"source" : [ "obj-161", 0 ]
								}

							}
, 							{
								"patchline" : 								{
									"destination" : [ "obj-44", 0 ],
									"source" : [ "obj-162", 0 ]
								}

							}
, 							{
								"patchline" : 								{
									"destination" : [ "obj-50", 0 ],
									"source" : [ "obj-163", 0 ]
								}

							}
, 							{
								"patchline" : 								{
									"destination" : [ "obj-143", 0 ],
									"source" : [ "obj-164", 0 ]
								}

							}
, 							{
								"patchline" : 								{
									"destination" : [ "obj-114", 0 ],
									"order" : 1,
									"source" : [ "obj-39", 0 ]
								}

							}
, 							{
								"patchline" : 								{
									"destination" : [ "obj-149", 1 ],
									"order" : 0,
									"source" : [ "obj-39", 0 ]
								}

							}
, 							{
								"patchline" : 								{
									"destination" : [ "obj-39", 0 ],
									"source" : [ "obj-40", 0 ]
								}

							}
, 							{
								"patchline" : 								{
									"destination" : [ "obj-40", 0 ],
									"source" : [ "obj-44", 0 ]
								}

							}
, 							{
								"patchline" : 								{
									"destination" : [ "obj-39", 2 ],
									"source" : [ "obj-50", 0 ]
								}

							}
 ]
					}
,
					"patching_rect" : [ 445.0, 392.0, 62.0, 22.0 ],
					"saved_object_attributes" : 					{
						"description" : "",
						"digest" : "",
						"globalpatchername" : "",
						"tags" : ""
					}
,
					"text" : "p tempo"
				}

			}
, 			{
				"box" : 				{
					"id" : "obj-137",
					"maxclass" : "newobj",
					"numinlets" : 1,
					"numoutlets" : 1,
					"outlettype" : [ "" ],
					"patcher" : 					{
						"fileversion" : 1,
						"appversion" : 						{
							"major" : 8,
							"minor" : 0,
							"revision" : 4,
							"architecture" : "x64",
							"modernui" : 1
						}
,
						"classnamespace" : "box",
						"rect" : [ 59.0, 104.0, 640.0, 480.0 ],
						"bglocked" : 0,
						"openinpresentation" : 0,
						"default_fontsize" : 12.0,
						"default_fontface" : 0,
						"default_fontname" : "Arial",
						"gridonopen" : 1,
						"gridsize" : [ 15.0, 15.0 ],
						"gridsnaponopen" : 1,
						"objectsnaponopen" : 1,
						"statusbarvisible" : 2,
						"toolbarvisible" : 1,
						"lefttoolbarpinned" : 0,
						"toptoolbarpinned" : 0,
						"righttoolbarpinned" : 0,
						"bottomtoolbarpinned" : 0,
						"toolbars_unpinned_last_save" : 0,
						"tallnewobj" : 0,
						"boxanimatetime" : 200,
						"enablehscroll" : 1,
						"enablevscroll" : 1,
						"devicewidth" : 0.0,
						"description" : "",
						"digest" : "",
						"tags" : "",
						"style" : "",
						"subpatcher_template" : "",
						"boxes" : [ 							{
								"box" : 								{
									"comment" : "",
									"id" : "obj-2",
									"index" : 1,
									"maxclass" : "outlet",
									"numinlets" : 1,
									"numoutlets" : 0,
									"patching_rect" : [ 50.0, 234.0, 30.0, 30.0 ]
								}

							}
, 							{
								"box" : 								{
									"comment" : "",
									"id" : "obj-1",
									"index" : 1,
									"maxclass" : "inlet",
									"numinlets" : 0,
									"numoutlets" : 1,
									"outlettype" : [ "" ],
									"patching_rect" : [ 113.0, 31.0, 30.0, 30.0 ]
								}

							}
, 							{
								"box" : 								{
									"id" : "obj-136",
									"maxclass" : "newobj",
									"numinlets" : 1,
									"numoutlets" : 2,
									"outlettype" : [ "", "bang" ],
									"patching_rect" : [ 61.25, 100.0, 29.5, 22.0 ],
									"text" : "t l b"
								}

							}
, 							{
								"box" : 								{
									"id" : "obj-135",
									"maxclass" : "newobj",
									"numinlets" : 2,
									"numoutlets" : 1,
									"outlettype" : [ "int" ],
									"patching_rect" : [ 96.0, 133.0, 73.0, 22.0 ],
									"text" : "random 100"
								}

							}
, 							{
								"box" : 								{
									"id" : "obj-134",
									"maxclass" : "newobj",
									"numinlets" : 2,
									"numoutlets" : 1,
									"outlettype" : [ "" ],
									"patching_rect" : [ 50.0, 174.0, 55.0, 22.0 ],
									"text" : "pipe 100"
								}

							}
 ],
						"lines" : [ 							{
								"patchline" : 								{
									"destination" : [ "obj-136", 0 ],
									"source" : [ "obj-1", 0 ]
								}

							}
, 							{
								"patchline" : 								{
									"destination" : [ "obj-2", 0 ],
									"source" : [ "obj-134", 0 ]
								}

							}
, 							{
								"patchline" : 								{
									"destination" : [ "obj-134", 1 ],
									"source" : [ "obj-135", 0 ]
								}

							}
, 							{
								"patchline" : 								{
									"destination" : [ "obj-134", 0 ],
									"source" : [ "obj-136", 0 ]
								}

							}
, 							{
								"patchline" : 								{
									"destination" : [ "obj-135", 0 ],
									"source" : [ "obj-136", 1 ]
								}

							}
 ]
					}
,
					"patching_rect" : [ 91.0, 706.0, 85.0, 22.0 ],
					"saved_object_attributes" : 					{
						"description" : "",
						"digest" : "",
						"globalpatchername" : "",
						"tags" : ""
					}
,
					"text" : "p sillyphrasing"
				}

			}
, 			{
				"box" : 				{
					"id" : "obj-130",
					"linecount" : 2,
					"maxclass" : "comment",
					"numinlets" : 1,
					"numoutlets" : 0,
					"patching_rect" : [ 243.0, 62.0, 150.0, 33.0 ],
					"text" : "bang at end of phrase over"
				}

			}
, 			{
				"box" : 				{
					"id" : "obj-128",
					"maxclass" : "button",
					"numinlets" : 1,
					"numoutlets" : 1,
					"outlettype" : [ "bang" ],
					"parameter_enable" : 0,
					"patching_rect" : [ 264.0, 84.0, 24.0, 24.0 ]
				}

			}
, 			{
				"box" : 				{
					"id" : "obj-126",
					"maxclass" : "comment",
					"numinlets" : 1,
					"numoutlets" : 0,
					"patching_rect" : [ 80.0, 921.0, 150.0, 20.0 ],
					"text" : "Playback"
				}

			}
, 			{
				"box" : 				{
					"id" : "obj-118",
					"maxclass" : "button",
					"numinlets" : 1,
					"numoutlets" : 1,
					"outlettype" : [ "bang" ],
					"parameter_enable" : 0,
					"patching_rect" : [ 189.0, 186.0, 24.0, 24.0 ]
				}

			}
, 			{
				"box" : 				{
					"id" : "obj-116",
					"maxclass" : "newobj",
					"numinlets" : 1,
					"numoutlets" : 3,
					"outlettype" : [ "int", "bang", "bang" ],
					"patching_rect" : [ 456.0, 208.0, 42.0, 22.0 ],
					"text" : "t 1 b b"
				}

			}
, 			{
				"box" : 				{
					"id" : "obj-113",
					"maxclass" : "newobj",
					"numinlets" : 2,
					"numoutlets" : 1,
					"outlettype" : [ "int" ],
					"patching_rect" : [ 91.0, 522.0, 29.5, 22.0 ],
					"text" : "+"
				}

			}
, 			{
				"box" : 				{
					"id" : "obj-109",
					"linecount" : 4,
					"maxclass" : "comment",
					"numinlets" : 1,
					"numoutlets" : 0,
					"patching_rect" : [ 190.0, 293.0, 151.0, 60.0 ],
					"text" : "defines a start and end for melodic fragment\noutlet 1 - start point\noutlet 2 - time after to stop"
				}

			}
, 			{
				"box" : 				{
					"id" : "obj-107",
					"maxclass" : "number",
					"numinlets" : 1,
					"numoutlets" : 2,
					"outlettype" : [ "", "bang" ],
					"parameter_enable" : 0,
					"patching_rect" : [ 70.0, 381.5, 50.0, 22.0 ]
				}

			}
, 			{
				"box" : 				{
					"id" : "obj-105",
					"maxclass" : "number",
					"numinlets" : 1,
					"numoutlets" : 2,
					"outlettype" : [ "", "bang" ],
					"parameter_enable" : 0,
					"patching_rect" : [ 164.0, 386.5, 114.0, 22.0 ]
				}

			}
, 			{
				"box" : 				{
					"id" : "obj-103",
					"maxclass" : "button",
					"numinlets" : 1,
					"numoutlets" : 1,
					"outlettype" : [ "bang" ],
					"parameter_enable" : 0,
					"patching_rect" : [ 70.0, 252.5, 24.0, 24.0 ]
				}

			}
, 			{
				"box" : 				{
					"id" : "obj-101",
					"maxclass" : "newobj",
					"numinlets" : 1,
					"numoutlets" : 2,
					"outlettype" : [ "", "" ],
					"patcher" : 					{
						"fileversion" : 1,
						"appversion" : 						{
							"major" : 8,
							"minor" : 0,
							"revision" : 4,
							"architecture" : "x64",
							"modernui" : 1
						}
,
						"classnamespace" : "box",
						"rect" : [ 34.0, 79.0, 1160.0, 937.0 ],
						"bglocked" : 0,
						"openinpresentation" : 0,
						"default_fontsize" : 12.0,
						"default_fontface" : 0,
						"default_fontname" : "Arial",
						"gridonopen" : 1,
						"gridsize" : [ 15.0, 15.0 ],
						"gridsnaponopen" : 1,
						"objectsnaponopen" : 1,
						"statusbarvisible" : 2,
						"toolbarvisible" : 1,
						"lefttoolbarpinned" : 0,
						"toptoolbarpinned" : 0,
						"righttoolbarpinned" : 0,
						"bottomtoolbarpinned" : 0,
						"toolbars_unpinned_last_save" : 0,
						"tallnewobj" : 0,
						"boxanimatetime" : 200,
						"enablehscroll" : 1,
						"enablevscroll" : 1,
						"devicewidth" : 0.0,
						"description" : "",
						"digest" : "",
						"tags" : "",
						"style" : "",
						"subpatcher_template" : "",
						"boxes" : [ 							{
								"box" : 								{
									"id" : "obj-18",
									"maxclass" : "newobj",
									"numinlets" : 2,
									"numoutlets" : 1,
									"outlettype" : [ "int" ],
									"patching_rect" : [ 206.0, 354.0, 29.5, 22.0 ],
									"text" : "- 3"
								}

							}
, 							{
								"box" : 								{
									"id" : "obj-17",
									"maxclass" : "newobj",
									"numinlets" : 1,
									"numoutlets" : 1,
									"outlettype" : [ "" ],
									"patching_rect" : [ 162.0, 818.0, 162.0, 22.0 ],
									"text" : "if $i1 < 0 then 37500 else $i1"
								}

							}
, 							{
								"box" : 								{
									"id" : "obj-11",
									"linecount" : 3,
									"maxclass" : "comment",
									"numinlets" : 1,
									"numoutlets" : 0,
									"patching_rect" : [ 257.5, 742.5, 150.0, 47.0 ],
									"text" : "calculate distance between end time and start time"
								}

							}
, 							{
								"box" : 								{
									"id" : "obj-9",
									"maxclass" : "newobj",
									"numinlets" : 1,
									"numoutlets" : 2,
									"outlettype" : [ "bang", "bang" ],
									"patching_rect" : [ 172.0, 711.0, 32.0, 22.0 ],
									"text" : "t b b"
								}

							}
, 							{
								"box" : 								{
									"id" : "obj-8",
									"maxclass" : "newobj",
									"numinlets" : 2,
									"numoutlets" : 1,
									"outlettype" : [ "int" ],
									"patching_rect" : [ 138.0, 747.5, 29.5, 22.0 ],
									"text" : "i"
								}

							}
, 							{
								"box" : 								{
									"id" : "obj-7",
									"maxclass" : "newobj",
									"numinlets" : 2,
									"numoutlets" : 1,
									"outlettype" : [ "int" ],
									"patching_rect" : [ 186.0, 747.5, 29.5, 22.0 ],
									"text" : "i"
								}

							}
, 							{
								"box" : 								{
									"id" : "obj-6",
									"maxclass" : "newobj",
									"numinlets" : 2,
									"numoutlets" : 1,
									"outlettype" : [ "int" ],
									"patching_rect" : [ 162.0, 784.5, 29.5, 22.0 ],
									"text" : "-"
								}

							}
, 							{
								"box" : 								{
									"comment" : "",
									"id" : "obj-3",
									"index" : 2,
									"maxclass" : "outlet",
									"numinlets" : 1,
									"numoutlets" : 0,
									"patching_rect" : [ 161.0, 855.0, 30.0, 30.0 ]
								}

							}
, 							{
								"box" : 								{
									"comment" : "",
									"id" : "obj-2",
									"index" : 1,
									"maxclass" : "outlet",
									"numinlets" : 1,
									"numoutlets" : 0,
									"patching_rect" : [ 74.25, 850.0, 30.0, 30.0 ]
								}

							}
, 							{
								"box" : 								{
									"comment" : "",
									"id" : "obj-1",
									"index" : 1,
									"maxclass" : "inlet",
									"numinlets" : 0,
									"numoutlets" : 1,
									"outlettype" : [ "bang" ],
									"patching_rect" : [ 188.0, 51.0, 30.0, 30.0 ]
								}

							}
, 							{
								"box" : 								{
									"id" : "obj-100",
									"linecount" : 2,
									"maxclass" : "comment",
									"numinlets" : 1,
									"numoutlets" : 0,
									"patching_rect" : [ 272.0, 392.0, 150.0, 33.0 ],
									"text" : "Chooses start and end points for fragments"
								}

							}
, 							{
								"box" : 								{
									"id" : "obj-97",
									"maxclass" : "number",
									"numinlets" : 1,
									"numoutlets" : 2,
									"outlettype" : [ "", "bang" ],
									"parameter_enable" : 0,
									"patching_rect" : [ 74.25, 669.0, 50.0, 22.0 ]
								}

							}
, 							{
								"box" : 								{
									"id" : "obj-95",
									"maxclass" : "number",
									"numinlets" : 1,
									"numoutlets" : 2,
									"outlettype" : [ "", "bang" ],
									"parameter_enable" : 0,
									"patching_rect" : [ 148.5, 669.0, 50.0, 22.0 ]
								}

							}
, 							{
								"box" : 								{
									"id" : "obj-92",
									"maxclass" : "newobj",
									"numinlets" : 1,
									"numoutlets" : 4,
									"outlettype" : [ "bang", "", "", "" ],
									"patching_rect" : [ 48.5, 321.0, 50.5, 22.0 ],
									"text" : "t b l l l"
								}

							}
, 							{
								"box" : 								{
									"id" : "obj-91",
									"maxclass" : "newobj",
									"numinlets" : 2,
									"numoutlets" : 2,
									"outlettype" : [ "", "" ],
									"patching_rect" : [ 59.0, 602.0, 41.0, 22.0 ],
									"text" : "zl mth"
								}

							}
, 							{
								"box" : 								{
									"id" : "obj-90",
									"maxclass" : "newobj",
									"numinlets" : 2,
									"numoutlets" : 1,
									"outlettype" : [ "int" ],
									"patching_rect" : [ 196.0, 522.0, 29.5, 22.0 ],
									"text" : "+ 3"
								}

							}
, 							{
								"box" : 								{
									"id" : "obj-89",
									"maxclass" : "newobj",
									"numinlets" : 2,
									"numoutlets" : 1,
									"outlettype" : [ "int" ],
									"patching_rect" : [ 196.0, 481.0, 59.0, 22.0 ],
									"text" : "random 8"
								}

							}
, 							{
								"box" : 								{
									"id" : "obj-86",
									"maxclass" : "newobj",
									"numinlets" : 1,
									"numoutlets" : 2,
									"outlettype" : [ "int", "bang" ],
									"patching_rect" : [ 155.0, 442.0, 29.5, 22.0 ],
									"text" : "t i b"
								}

							}
, 							{
								"box" : 								{
									"id" : "obj-85",
									"maxclass" : "newobj",
									"numinlets" : 2,
									"numoutlets" : 1,
									"outlettype" : [ "int" ],
									"patching_rect" : [ 155.0, 560.0, 29.5, 22.0 ],
									"text" : "+"
								}

							}
, 							{
								"box" : 								{
									"id" : "obj-82",
									"maxclass" : "newobj",
									"numinlets" : 1,
									"numoutlets" : 2,
									"outlettype" : [ "bang", "int" ],
									"patching_rect" : [ 155.0, 377.0, 29.5, 22.0 ],
									"text" : "t b i"
								}

							}
, 							{
								"box" : 								{
									"id" : "obj-81",
									"maxclass" : "newobj",
									"numinlets" : 2,
									"numoutlets" : 2,
									"outlettype" : [ "", "" ],
									"patching_rect" : [ 74.25, 449.0, 41.0, 22.0 ],
									"text" : "zl mth"
								}

							}
, 							{
								"box" : 								{
									"id" : "obj-80",
									"maxclass" : "newobj",
									"numinlets" : 2,
									"numoutlets" : 1,
									"outlettype" : [ "int" ],
									"patching_rect" : [ 155.0, 409.0, 49.0, 22.0 ],
									"text" : "random"
								}

							}
, 							{
								"box" : 								{
									"id" : "obj-77",
									"maxclass" : "newobj",
									"numinlets" : 2,
									"numoutlets" : 2,
									"outlettype" : [ "", "" ],
									"patching_rect" : [ 155.0, 328.0, 37.0, 22.0 ],
									"text" : "zl len"
								}

							}
, 							{
								"box" : 								{
									"id" : "obj-74",
									"maxclass" : "button",
									"numinlets" : 1,
									"numoutlets" : 1,
									"outlettype" : [ "bang" ],
									"parameter_enable" : 0,
									"patching_rect" : [ 199.0, 229.0, 24.0, 24.0 ]
								}

							}
, 							{
								"box" : 								{
									"id" : "obj-70",
									"maxclass" : "newobj",
									"numinlets" : 2,
									"numoutlets" : 2,
									"outlettype" : [ "", "" ],
									"patching_rect" : [ 127.0, 279.0, 51.0, 22.0 ],
									"text" : "zl group"
								}

							}
, 							{
								"box" : 								{
									"id" : "obj-58",
									"maxclass" : "message",
									"numinlets" : 2,
									"numoutlets" : 1,
									"outlettype" : [ "" ],
									"patching_rect" : [ 99.0, 138.0, 39.0, 22.0 ],
									"text" : "dump"
								}

							}
, 							{
								"box" : 								{
									"coll_data" : 									{
										"count" : 45,
										"data" : [ 											{
												"key" : 0,
												"value" : [ "notes", 73, 76, "notes1", 67, 76, "notes2", 58, 76, "notes3", 51, 76 ]
											}
, 											{
												"key" : 1000,
												"value" : [ "notes", 70, 75 ]
											}
, 											{
												"key" : 2000,
												"value" : [ "notes", 71, 76, "notes1", 66, 76, "notes2", 54, 76, "notes3", 51, 76 ]
											}
, 											{
												"key" : 3500,
												"value" : [ "notes", 74, 77 ]
											}
, 											{
												"key" : 4000,
												"value" : [ "notes", 73, 76, "notes1", 67, 76, "notes2", 58, 77, "notes3", 51, 76 ]
											}
, 											{
												"key" : 5000,
												"value" : [ "notes", 70, 75 ]
											}
, 											{
												"key" : 6000,
												"value" : [ "notes", 75, 78, "notes1", 66, 76, "notes2", 59, 76, "notes3", 54, 76 ]
											}
, 											{
												"key" : 7000,
												"value" : [ "notes", 58, 76 ]
											}
, 											{
												"key" : 8000,
												"value" : [ "notes", 76, 76, "notes1", 65, 76, "notes2", 57, 76, "notes3", 48, 76 ]
											}
, 											{
												"key" : 8750,
												"value" : [ "notes", 50, 80 ]
											}
, 											{
												"key" : 9000,
												"value" : [ "notes", 73, 75, "notes1", 69, 77, "notes2", 54, 75, "notes3", 52, 80 ]
											}
, 											{
												"key" : 9500,
												"value" : [ "notes", 74, 76 ]
											}
, 											{
												"key" : 10000,
												"value" : [ "notes", 76, 78, "notes1", 65, 75, "notes2", 57, 77, "notes3", 48, 75 ]
											}
, 											{
												"key" : 10500,
												"value" : [ "notes", 73, 74, "notes1", 69, 78, "notes2", 54, 75, "notes3", 50, 77 ]
											}
, 											{
												"key" : 11250,
												"value" : [ "notes", 74, 79 ]
											}
, 											{
												"key" : 11500,
												"value" : [ "notes", 76, 80, "notes1", 65, 75, "notes2", 57, 77, "notes3", 48, 76 ]
											}
, 											{
												"key" : 12000,
												"value" : [ "notes", 78, 80, "notes1", 69, 78, "notes2", 61, 80, "notes3", 57, 82 ]
											}
, 											{
												"key" : 13000,
												"value" : [ "notes", 56, 77 ]
											}
, 											{
												"key" : 13250,
												"value" : [ "notes", 76, 79, "notes1", 67, 79, "notes2", 59, 76, "notes3", 52, 74 ]
											}
, 											{
												"key" : 13500,
												"value" : [ "notes", 73, 75, "notes1", 69, 79, "notes2", 49, 71 ]
											}
, 											{
												"key" : 14500,
												"value" : [ "notes", 71, 74, "notes1", 66, 75, "notes2", 57, 76 ]
											}
, 											{
												"key" : 16500,
												"value" : [ "notes", 73, 76, "notes1", 69, 76, "notes2", 54, 76, "notes3", 49, 76 ]
											}
, 											{
												"key" : 20000,
												"value" : [ "notes", 76, 76, "notes1", 67, 76, "notes2", 59, 76, "notes3", 52, 76 ]
											}
, 											{
												"key" : 20500,
												"value" : [ "notes", 78, 77, "notes1", 69, 77, "notes2", 61, 77, "notes3", 56, 78 ]
											}
, 											{
												"key" : 21000,
												"value" : [ "notes", 57, 78 ]
											}
, 											{
												"key" : 23000,
												"value" : [ "notes", 76, 76, "notes1", 65, 76, "notes2", 57, 76, "notes3", 48, 76 ]
											}
, 											{
												"key" : 24000,
												"value" : [ "notes", 74, 76, "notes1", 69, 77, "notes2", 54, 75, "notes3", 50, 77 ]
											}
, 											{
												"key" : 24500,
												"value" : [ "notes", 73, 75 ]
											}
, 											{
												"key" : 25000,
												"value" : [ "notes", 76, 78, "notes1", 67, 76, "notes2", 59, 78, "notes3", 52, 77 ]
											}
, 											{
												"key" : 25500,
												"value" : [ "notes", 78, 79, "notes1", 61, 78, "notes2", 56, 79 ]
											}
, 											{
												"key" : 26000,
												"value" : [ "notes", 76, 76, "notes1", 67, 76 ]
											}
, 											{
												"key" : 26500,
												"value" : [ "notes", 78, 78, "notes1", 69, 77 ]
											}
, 											{
												"key" : 27000,
												"value" : [ "notes", 57, 77 ]
											}
, 											{
												"key" : 28500,
												"value" : [ "notes", 76, 76, "notes1", 65, 76, "notes2", 57, 76, "notes3", 48, 75 ]
											}
, 											{
												"key" : 29000,
												"value" : [ "notes", 74, 78, "notes1", 69, 78, "notes2", 54, 75, "notes3", 50, 77 ]
											}
, 											{
												"key" : 29250,
												"value" : [ "notes", 73, 76 ]
											}
, 											{
												"key" : 30000,
												"value" : [ "notes", 76, 78, "notes1", 65, 75, "notes2", 57, 77, "notes3", 48, 76 ]
											}
, 											{
												"key" : 30500,
												"value" : [ "notes", 75, 76, "notes1", 66, 76, "notes2", 58, 77, "notes3", 54, 80 ]
											}
, 											{
												"key" : 31500,
												"value" : [ "notes", 59, 77 ]
											}
, 											{
												"key" : 32500,
												"value" : [ "notes", 70, 76, "notes1", 67, 76, "notes2", 58, 76, "notes3", 51, 76 ]
											}
, 											{
												"key" : 33500,
												"value" : [ "notes", 73, 77 ]
											}
, 											{
												"key" : 34500,
												"value" : [ "notes", 74, 77, "notes1", 66, 76, "notes2", 54, 76, "notes3", 51, 76 ]
											}
, 											{
												"key" : 35000,
												"value" : [ "notes", 71, 74 ]
											}
, 											{
												"key" : 36500,
												"value" : [ "notes", 70, 76, "notes1", 67, 76, "notes2", 58, 77, "notes3", 51, 76 ]
											}
, 											{
												"key" : 37500,
												"value" : [ "notes", 73, 77 ]
											}
 ]
									}
,
									"id" : "obj-57",
									"maxclass" : "newobj",
									"numinlets" : 1,
									"numoutlets" : 4,
									"outlettype" : [ "", "", "", "" ],
									"patching_rect" : [ 99.0, 180.0, 119.0, 22.0 ],
									"saved_object_attributes" : 									{
										"embed" : 1
									}
,
									"text" : "coll outro @embed 1"
								}

							}
, 							{
								"box" : 								{
									"angle" : 270.0,
									"bgcolor" : [ 0.2, 0.113725490196078, 0.627450980392157, 1.0 ],
									"id" : "obj-98",
									"maxclass" : "panel",
									"mode" : 0,
									"numinlets" : 1,
									"numoutlets" : 0,
									"patching_rect" : [ 41.5, 167.0, 222.0, 491.0 ],
									"proportion" : 0.5
								}

							}
 ],
						"lines" : [ 							{
								"patchline" : 								{
									"destination" : [ "obj-58", 0 ],
									"source" : [ "obj-1", 0 ]
								}

							}
, 							{
								"patchline" : 								{
									"destination" : [ "obj-3", 0 ],
									"source" : [ "obj-17", 0 ]
								}

							}
, 							{
								"patchline" : 								{
									"destination" : [ "obj-82", 0 ],
									"source" : [ "obj-18", 0 ]
								}

							}
, 							{
								"patchline" : 								{
									"destination" : [ "obj-70", 0 ],
									"source" : [ "obj-57", 1 ]
								}

							}
, 							{
								"patchline" : 								{
									"destination" : [ "obj-74", 0 ],
									"source" : [ "obj-57", 3 ]
								}

							}
, 							{
								"patchline" : 								{
									"destination" : [ "obj-57", 0 ],
									"source" : [ "obj-58", 0 ]
								}

							}
, 							{
								"patchline" : 								{
									"destination" : [ "obj-17", 0 ],
									"source" : [ "obj-6", 0 ]
								}

							}
, 							{
								"patchline" : 								{
									"destination" : [ "obj-6", 1 ],
									"source" : [ "obj-7", 0 ]
								}

							}
, 							{
								"patchline" : 								{
									"destination" : [ "obj-92", 0 ],
									"source" : [ "obj-70", 0 ]
								}

							}
, 							{
								"patchline" : 								{
									"destination" : [ "obj-70", 0 ],
									"source" : [ "obj-74", 0 ]
								}

							}
, 							{
								"patchline" : 								{
									"destination" : [ "obj-18", 0 ],
									"source" : [ "obj-77", 0 ]
								}

							}
, 							{
								"patchline" : 								{
									"destination" : [ "obj-6", 0 ],
									"source" : [ "obj-8", 0 ]
								}

							}
, 							{
								"patchline" : 								{
									"destination" : [ "obj-81", 1 ],
									"order" : 1,
									"source" : [ "obj-80", 0 ]
								}

							}
, 							{
								"patchline" : 								{
									"destination" : [ "obj-86", 0 ],
									"order" : 0,
									"source" : [ "obj-80", 0 ]
								}

							}
, 							{
								"patchline" : 								{
									"destination" : [ "obj-97", 0 ],
									"source" : [ "obj-81", 0 ]
								}

							}
, 							{
								"patchline" : 								{
									"destination" : [ "obj-80", 1 ],
									"source" : [ "obj-82", 1 ]
								}

							}
, 							{
								"patchline" : 								{
									"destination" : [ "obj-80", 0 ],
									"source" : [ "obj-82", 0 ]
								}

							}
, 							{
								"patchline" : 								{
									"destination" : [ "obj-91", 1 ],
									"source" : [ "obj-85", 0 ]
								}

							}
, 							{
								"patchline" : 								{
									"destination" : [ "obj-85", 0 ],
									"source" : [ "obj-86", 0 ]
								}

							}
, 							{
								"patchline" : 								{
									"destination" : [ "obj-89", 0 ],
									"source" : [ "obj-86", 1 ]
								}

							}
, 							{
								"patchline" : 								{
									"destination" : [ "obj-90", 0 ],
									"source" : [ "obj-89", 0 ]
								}

							}
, 							{
								"patchline" : 								{
									"destination" : [ "obj-7", 0 ],
									"source" : [ "obj-9", 1 ]
								}

							}
, 							{
								"patchline" : 								{
									"destination" : [ "obj-8", 0 ],
									"source" : [ "obj-9", 0 ]
								}

							}
, 							{
								"patchline" : 								{
									"destination" : [ "obj-85", 1 ],
									"source" : [ "obj-90", 0 ]
								}

							}
, 							{
								"patchline" : 								{
									"destination" : [ "obj-95", 0 ],
									"source" : [ "obj-91", 0 ]
								}

							}
, 							{
								"patchline" : 								{
									"destination" : [ "obj-77", 0 ],
									"source" : [ "obj-92", 3 ]
								}

							}
, 							{
								"patchline" : 								{
									"destination" : [ "obj-81", 0 ],
									"source" : [ "obj-92", 2 ]
								}

							}
, 							{
								"patchline" : 								{
									"destination" : [ "obj-9", 0 ],
									"source" : [ "obj-92", 0 ]
								}

							}
, 							{
								"patchline" : 								{
									"destination" : [ "obj-91", 0 ],
									"source" : [ "obj-92", 1 ]
								}

							}
, 							{
								"patchline" : 								{
									"destination" : [ "obj-8", 1 ],
									"source" : [ "obj-95", 0 ]
								}

							}
, 							{
								"patchline" : 								{
									"destination" : [ "obj-2", 0 ],
									"order" : 1,
									"source" : [ "obj-97", 0 ]
								}

							}
, 							{
								"patchline" : 								{
									"destination" : [ "obj-7", 1 ],
									"order" : 0,
									"source" : [ "obj-97", 0 ]
								}

							}
 ]
					}
,
					"patching_rect" : [ 70.0, 307.5, 113.0, 22.0 ],
					"saved_object_attributes" : 					{
						"description" : "",
						"digest" : "",
						"globalpatchername" : "",
						"tags" : ""
					}
,
					"text" : "p melodicfragments"
				}

			}
, 			{
				"box" : 				{
					"id" : "obj-67",
					"maxclass" : "comment",
					"numinlets" : 1,
					"numoutlets" : 0,
					"patching_rect" : [ 380.0, 762.0, 166.0, 20.0 ],
					"text" : "If need to use a new midi file"
				}

			}
, 			{
				"box" : 				{
					"id" : "obj-64",
					"maxclass" : "comment",
					"numinlets" : 1,
					"numoutlets" : 0,
					"patching_rect" : [ 502.0, 104.0, 74.0, 20.0 ],
					"text" : "INTENSITY"
				}

			}
, 			{
				"box" : 				{
					"id" : "obj-51",
					"maxclass" : "newobj",
					"numinlets" : 0,
					"numoutlets" : 0,
					"patcher" : 					{
						"fileversion" : 1,
						"appversion" : 						{
							"major" : 8,
							"minor" : 0,
							"revision" : 4,
							"architecture" : "x64",
							"modernui" : 1
						}
,
						"classnamespace" : "box",
						"rect" : [ 0.0, 0.0, 640.0, 480.0 ],
						"bglocked" : 0,
						"openinpresentation" : 0,
						"default_fontsize" : 12.0,
						"default_fontface" : 0,
						"default_fontname" : "Arial",
						"gridonopen" : 1,
						"gridsize" : [ 15.0, 15.0 ],
						"gridsnaponopen" : 1,
						"objectsnaponopen" : 1,
						"statusbarvisible" : 2,
						"toolbarvisible" : 1,
						"lefttoolbarpinned" : 0,
						"toptoolbarpinned" : 0,
						"righttoolbarpinned" : 0,
						"bottomtoolbarpinned" : 0,
						"toolbars_unpinned_last_save" : 0,
						"tallnewobj" : 0,
						"boxanimatetime" : 200,
						"enablehscroll" : 1,
						"enablevscroll" : 1,
						"devicewidth" : 0.0,
						"description" : "",
						"digest" : "",
						"tags" : "",
						"style" : "",
						"subpatcher_template" : "",
						"boxes" : [ 							{
								"box" : 								{
									"id" : "obj-27",
									"linecount" : 4,
									"maxclass" : "message",
									"numinlets" : 2,
									"numoutlets" : 1,
									"outlettype" : [ "" ],
									"patching_rect" : [ 367.5, 664.0, 50.0, 62.0 ],
									"text" : "merge 37500 notes 73 77"
								}

							}
, 							{
								"box" : 								{
									"id" : "obj-7",
									"maxclass" : "message",
									"numinlets" : 2,
									"numoutlets" : 1,
									"outlettype" : [ "" ],
									"patching_rect" : [ 373.5, 616.0, 125.0, 22.0 ],
									"text" : "37500 notes 73 77"
								}

							}
, 							{
								"box" : 								{
									"id" : "obj-38",
									"maxclass" : "newobj",
									"numinlets" : 1,
									"numoutlets" : 1,
									"outlettype" : [ "" ],
									"patching_rect" : [ 171.5, 631.0, 90.0, 22.0 ],
									"text" : "prepend merge"
								}

							}
, 							{
								"box" : 								{
									"id" : "obj-37",
									"maxclass" : "newobj",
									"numinlets" : 2,
									"numoutlets" : 1,
									"outlettype" : [ "int" ],
									"patching_rect" : [ 153.5, 511.0, 29.5, 22.0 ],
									"text" : "i"
								}

							}
, 							{
								"box" : 								{
									"id" : "obj-36",
									"maxclass" : "button",
									"numinlets" : 1,
									"numoutlets" : 1,
									"outlettype" : [ "bang" ],
									"parameter_enable" : 0,
									"patching_rect" : [ 51.0, 100.0, 24.0, 24.0 ]
								}

							}
, 							{
								"box" : 								{
									"id" : "obj-34",
									"maxclass" : "newobj",
									"numinlets" : 1,
									"numoutlets" : 3,
									"outlettype" : [ "int", "bang", "bang" ],
									"patching_rect" : [ 50.0, 171.0, 42.0, 22.0 ],
									"text" : "t 1 b b"
								}

							}
, 							{
								"box" : 								{
									"id" : "obj-33",
									"maxclass" : "newobj",
									"numinlets" : 5,
									"numoutlets" : 4,
									"outlettype" : [ "int", "", "", "int" ],
									"patching_rect" : [ 52.0, 472.0, 61.0, 22.0 ],
									"text" : "counter"
								}

							}
, 							{
								"box" : 								{
									"id" : "obj-32",
									"maxclass" : "newobj",
									"numinlets" : 2,
									"numoutlets" : 1,
									"outlettype" : [ "bang" ],
									"patching_rect" : [ 52.0, 433.0, 49.0, 22.0 ],
									"text" : "metro 1"
								}

							}
, 							{
								"box" : 								{
									"id" : "obj-31",
									"maxclass" : "newobj",
									"numinlets" : 2,
									"numoutlets" : 2,
									"outlettype" : [ "int", "int" ],
									"patching_rect" : [ 182.5, 365.0, 55.0, 22.0 ],
									"text" : "stripnote"
								}

							}
, 							{
								"box" : 								{
									"id" : "obj-25",
									"maxclass" : "message",
									"numinlets" : 2,
									"numoutlets" : 1,
									"outlettype" : [ "" ],
									"patching_rect" : [ 380.5, 375.0, 50.0, 22.0 ],
									"text" : "51 0"
								}

							}
, 							{
								"box" : 								{
									"id" : "obj-23",
									"maxclass" : "newobj",
									"numinlets" : 4,
									"numoutlets" : 1,
									"outlettype" : [ "" ],
									"patching_rect" : [ 177.5, 555.0, 85.0, 22.0 ],
									"text" : "pack i notes i i"
								}

							}
, 							{
								"box" : 								{
									"id" : "obj-22",
									"maxclass" : "newobj",
									"numinlets" : 1,
									"numoutlets" : 2,
									"outlettype" : [ "int", "int" ],
									"patching_rect" : [ 182.5, 329.0, 55.0, 22.0 ],
									"text" : "unpack"
								}

							}
, 							{
								"box" : 								{
									"id" : "obj-21",
									"maxclass" : "newobj",
									"numinlets" : 1,
									"numoutlets" : 2,
									"outlettype" : [ "bang", "int" ],
									"patching_rect" : [ 153.5, 404.0, 29.5, 22.0 ],
									"text" : "t b i"
								}

							}
, 							{
								"box" : 								{
									"id" : "obj-14",
									"maxclass" : "newobj",
									"numinlets" : 1,
									"numoutlets" : 8,
									"outlettype" : [ "", "", "", "int", "int", "", "int", "" ],
									"patching_rect" : [ 182.5, 281.0, 92.5, 22.0 ],
									"text" : "midiparse"
								}

							}
, 							{
								"box" : 								{
									"coll_data" : 									{
										"count" : 45,
										"data" : [ 											{
												"key" : 0,
												"value" : [ "notes", 73, 76, "notes1", 67, 76, "notes2", 58, 76, "notes3", 51, 76 ]
											}
, 											{
												"key" : 1000,
												"value" : [ "notes", 70, 75 ]
											}
, 											{
												"key" : 2000,
												"value" : [ "notes", 71, 76, "notes1", 66, 76, "notes2", 54, 76, "notes3", 51, 76 ]
											}
, 											{
												"key" : 3500,
												"value" : [ "notes", 74, 77 ]
											}
, 											{
												"key" : 4000,
												"value" : [ "notes", 73, 76, "notes1", 67, 76, "notes2", 58, 77, "notes3", 51, 76 ]
											}
, 											{
												"key" : 5000,
												"value" : [ "notes", 70, 75 ]
											}
, 											{
												"key" : 6000,
												"value" : [ "notes", 75, 78, "notes1", 66, 76, "notes2", 59, 76, "notes3", 54, 76 ]
											}
, 											{
												"key" : 7000,
												"value" : [ "notes", 58, 76 ]
											}
, 											{
												"key" : 8000,
												"value" : [ "notes", 76, 76, "notes1", 65, 76, "notes2", 57, 76, "notes3", 48, 76 ]
											}
, 											{
												"key" : 8750,
												"value" : [ "notes", 50, 80 ]
											}
, 											{
												"key" : 9000,
												"value" : [ "notes", 73, 75, "notes1", 69, 77, "notes2", 54, 75, "notes3", 52, 80 ]
											}
, 											{
												"key" : 9500,
												"value" : [ "notes", 74, 76 ]
											}
, 											{
												"key" : 10000,
												"value" : [ "notes", 76, 78, "notes1", 65, 75, "notes2", 57, 77, "notes3", 48, 75 ]
											}
, 											{
												"key" : 10500,
												"value" : [ "notes", 73, 74, "notes1", 69, 78, "notes2", 54, 75, "notes3", 50, 77 ]
											}
, 											{
												"key" : 11250,
												"value" : [ "notes", 74, 79 ]
											}
, 											{
												"key" : 11500,
												"value" : [ "notes", 76, 80, "notes1", 65, 75, "notes2", 57, 77, "notes3", 48, 76 ]
											}
, 											{
												"key" : 12000,
												"value" : [ "notes", 78, 80, "notes1", 69, 78, "notes2", 61, 80, "notes3", 57, 82 ]
											}
, 											{
												"key" : 13000,
												"value" : [ "notes", 56, 77 ]
											}
, 											{
												"key" : 13250,
												"value" : [ "notes", 76, 79, "notes1", 67, 79, "notes2", 59, 76, "notes3", 52, 74 ]
											}
, 											{
												"key" : 13500,
												"value" : [ "notes", 73, 75, "notes1", 69, 79, "notes2", 49, 71 ]
											}
, 											{
												"key" : 14500,
												"value" : [ "notes", 71, 74, "notes1", 66, 75, "notes2", 57, 76 ]
											}
, 											{
												"key" : 16500,
												"value" : [ "notes", 73, 76, "notes1", 69, 76, "notes2", 54, 76, "notes3", 49, 76 ]
											}
, 											{
												"key" : 20000,
												"value" : [ "notes", 76, 76, "notes1", 67, 76, "notes2", 59, 76, "notes3", 52, 76 ]
											}
, 											{
												"key" : 20500,
												"value" : [ "notes", 78, 77, "notes1", 69, 77, "notes2", 61, 77, "notes3", 56, 78 ]
											}
, 											{
												"key" : 21000,
												"value" : [ "notes", 57, 78 ]
											}
, 											{
												"key" : 23000,
												"value" : [ "notes", 76, 76, "notes1", 65, 76, "notes2", 57, 76, "notes3", 48, 76 ]
											}
, 											{
												"key" : 24000,
												"value" : [ "notes", 74, 76, "notes1", 69, 77, "notes2", 54, 75, "notes3", 50, 77 ]
											}
, 											{
												"key" : 24500,
												"value" : [ "notes", 73, 75 ]
											}
, 											{
												"key" : 25000,
												"value" : [ "notes", 76, 78, "notes1", 67, 76, "notes2", 59, 78, "notes3", 52, 77 ]
											}
, 											{
												"key" : 25500,
												"value" : [ "notes", 78, 79, "notes1", 61, 78, "notes2", 56, 79 ]
											}
, 											{
												"key" : 26000,
												"value" : [ "notes", 76, 76, "notes1", 67, 76 ]
											}
, 											{
												"key" : 26500,
												"value" : [ "notes", 78, 78, "notes1", 69, 77 ]
											}
, 											{
												"key" : 27000,
												"value" : [ "notes", 57, 77 ]
											}
, 											{
												"key" : 28500,
												"value" : [ "notes", 76, 76, "notes1", 65, 76, "notes2", 57, 76, "notes3", 48, 75 ]
											}
, 											{
												"key" : 29000,
												"value" : [ "notes", 74, 78, "notes1", 69, 78, "notes2", 54, 75, "notes3", 50, 77 ]
											}
, 											{
												"key" : 29250,
												"value" : [ "notes", 73, 76 ]
											}
, 											{
												"key" : 30000,
												"value" : [ "notes", 76, 78, "notes1", 65, 75, "notes2", 57, 77, "notes3", 48, 76 ]
											}
, 											{
												"key" : 30500,
												"value" : [ "notes", 75, 76, "notes1", 66, 76, "notes2", 58, 77, "notes3", 54, 80 ]
											}
, 											{
												"key" : 31500,
												"value" : [ "notes", 59, 77 ]
											}
, 											{
												"key" : 32500,
												"value" : [ "notes", 70, 76, "notes1", 67, 76, "notes2", 58, 76, "notes3", 51, 76 ]
											}
, 											{
												"key" : 33500,
												"value" : [ "notes", 73, 77 ]
											}
, 											{
												"key" : 34500,
												"value" : [ "notes", 74, 77, "notes1", 66, 76, "notes2", 54, 76, "notes3", 51, 76 ]
											}
, 											{
												"key" : 35000,
												"value" : [ "notes", 71, 74 ]
											}
, 											{
												"key" : 36500,
												"value" : [ "notes", 70, 76, "notes1", 67, 76, "notes2", 58, 77, "notes3", 51, 76 ]
											}
, 											{
												"key" : 37500,
												"value" : [ "notes", 73, 77 ]
											}
 ]
									}
,
									"id" : "obj-12",
									"maxclass" : "newobj",
									"numinlets" : 1,
									"numoutlets" : 4,
									"outlettype" : [ "", "", "", "" ],
									"patching_rect" : [ 171.5, 663.0, 119.0, 22.0 ],
									"saved_object_attributes" : 									{
										"embed" : 1
									}
,
									"text" : "coll outro @embed 1"
								}

							}
, 							{
								"box" : 								{
									"fontname" : "Arial",
									"fontsize" : 13.0,
									"id" : "obj-18",
									"maxclass" : "message",
									"numinlets" : 2,
									"numoutlets" : 1,
									"outlettype" : [ "" ],
									"patching_rect" : [ 183.5, 137.0, 66.0, 23.0 ],
									"text" : "start 1024"
								}

							}
, 							{
								"box" : 								{
									"id" : "obj-6",
									"maxclass" : "newobj",
									"numinlets" : 1,
									"numoutlets" : 1,
									"outlettype" : [ "" ],
									"patching_rect" : [ 262.5, 203.0, 141.0, 22.0 ],
									"text" : "loadmess read outro.mid"
								}

							}
, 							{
								"box" : 								{
									"id" : "obj-3",
									"maxclass" : "newobj",
									"numinlets" : 1,
									"numoutlets" : 2,
									"outlettype" : [ "int", "bang" ],
									"patching_rect" : [ 182.5, 244.0, 29.5, 22.0 ],
									"text" : "seq"
								}

							}
 ],
						"lines" : [ 							{
								"patchline" : 								{
									"destination" : [ "obj-22", 0 ],
									"order" : 1,
									"source" : [ "obj-14", 0 ]
								}

							}
, 							{
								"patchline" : 								{
									"destination" : [ "obj-25", 1 ],
									"order" : 0,
									"source" : [ "obj-14", 0 ]
								}

							}
, 							{
								"patchline" : 								{
									"destination" : [ "obj-3", 0 ],
									"source" : [ "obj-18", 0 ]
								}

							}
, 							{
								"patchline" : 								{
									"destination" : [ "obj-23", 2 ],
									"source" : [ "obj-21", 1 ]
								}

							}
, 							{
								"patchline" : 								{
									"destination" : [ "obj-37", 0 ],
									"source" : [ "obj-21", 0 ]
								}

							}
, 							{
								"patchline" : 								{
									"destination" : [ "obj-31", 1 ],
									"source" : [ "obj-22", 1 ]
								}

							}
, 							{
								"patchline" : 								{
									"destination" : [ "obj-31", 0 ],
									"source" : [ "obj-22", 0 ]
								}

							}
, 							{
								"patchline" : 								{
									"destination" : [ "obj-38", 0 ],
									"order" : 1,
									"source" : [ "obj-23", 0 ]
								}

							}
, 							{
								"patchline" : 								{
									"destination" : [ "obj-7", 1 ],
									"order" : 0,
									"source" : [ "obj-23", 0 ]
								}

							}
, 							{
								"patchline" : 								{
									"destination" : [ "obj-14", 0 ],
									"source" : [ "obj-3", 0 ]
								}

							}
, 							{
								"patchline" : 								{
									"destination" : [ "obj-21", 0 ],
									"source" : [ "obj-31", 0 ]
								}

							}
, 							{
								"patchline" : 								{
									"destination" : [ "obj-23", 3 ],
									"source" : [ "obj-31", 1 ]
								}

							}
, 							{
								"patchline" : 								{
									"destination" : [ "obj-33", 0 ],
									"source" : [ "obj-32", 0 ]
								}

							}
, 							{
								"patchline" : 								{
									"destination" : [ "obj-37", 1 ],
									"source" : [ "obj-33", 0 ]
								}

							}
, 							{
								"patchline" : 								{
									"destination" : [ "obj-18", 0 ],
									"source" : [ "obj-34", 1 ]
								}

							}
, 							{
								"patchline" : 								{
									"destination" : [ "obj-32", 0 ],
									"source" : [ "obj-34", 0 ]
								}

							}
, 							{
								"patchline" : 								{
									"destination" : [ "obj-33", 2 ],
									"source" : [ "obj-34", 2 ]
								}

							}
, 							{
								"patchline" : 								{
									"destination" : [ "obj-34", 0 ],
									"source" : [ "obj-36", 0 ]
								}

							}
, 							{
								"patchline" : 								{
									"destination" : [ "obj-23", 0 ],
									"source" : [ "obj-37", 0 ]
								}

							}
, 							{
								"patchline" : 								{
									"destination" : [ "obj-12", 0 ],
									"order" : 1,
									"source" : [ "obj-38", 0 ]
								}

							}
, 							{
								"patchline" : 								{
									"destination" : [ "obj-27", 1 ],
									"order" : 0,
									"source" : [ "obj-38", 0 ]
								}

							}
, 							{
								"patchline" : 								{
									"destination" : [ "obj-3", 0 ],
									"source" : [ "obj-6", 0 ]
								}

							}
 ]
					}
,
					"patching_rect" : [ 423.5, 800.0, 69.0, 22.0 ],
					"saved_object_attributes" : 					{
						"description" : "",
						"digest" : "",
						"globalpatchername" : "",
						"tags" : ""
					}
,
					"text" : "p miditocoll"
				}

			}
, 			{
				"box" : 				{
					"id" : "obj-48",
					"maxclass" : "newobj",
					"numinlets" : 3,
					"numoutlets" : 0,
					"patching_rect" : [ 91.0, 887.0, 49.0, 22.0 ],
					"text" : "noteout"
				}

			}
, 			{
				"box" : 				{
					"id" : "obj-46",
					"maxclass" : "newobj",
					"numinlets" : 1,
					"numoutlets" : 2,
					"outlettype" : [ "int", "int" ],
					"patching_rect" : [ 91.0, 799.0, 47.0, 22.0 ],
					"text" : "unpack"
				}

			}
, 			{
				"box" : 				{
					"id" : "obj-45",
					"maxclass" : "newobj",
					"numinlets" : 3,
					"numoutlets" : 2,
					"outlettype" : [ "float", "float" ],
					"patching_rect" : [ 91.0, 846.0, 108.0, 22.0 ],
					"text" : "makenote 100 100"
				}

			}
, 			{
				"box" : 				{
					"coll_data" : 					{
						"count" : 45,
						"data" : [ 							{
								"key" : 0,
								"value" : [ "notes", 73, 76, "notes1", 67, 76, "notes2", 58, 76, "notes3", 51, 76 ]
							}
, 							{
								"key" : 1000,
								"value" : [ "notes", 70, 75 ]
							}
, 							{
								"key" : 2000,
								"value" : [ "notes", 71, 76, "notes1", 66, 76, "notes2", 54, 76, "notes3", 51, 76 ]
							}
, 							{
								"key" : 3500,
								"value" : [ "notes", 74, 77 ]
							}
, 							{
								"key" : 4000,
								"value" : [ "notes", 73, 76, "notes1", 67, 76, "notes2", 58, 77, "notes3", 51, 76 ]
							}
, 							{
								"key" : 5000,
								"value" : [ "notes", 70, 75 ]
							}
, 							{
								"key" : 6000,
								"value" : [ "notes", 75, 78, "notes1", 66, 76, "notes2", 59, 76, "notes3", 54, 76 ]
							}
, 							{
								"key" : 7000,
								"value" : [ "notes", 58, 76 ]
							}
, 							{
								"key" : 8000,
								"value" : [ "notes", 76, 76, "notes1", 65, 76, "notes2", 57, 76, "notes3", 48, 76 ]
							}
, 							{
								"key" : 8750,
								"value" : [ "notes", 50, 80 ]
							}
, 							{
								"key" : 9000,
								"value" : [ "notes", 73, 75, "notes1", 69, 77, "notes2", 54, 75, "notes3", 52, 80 ]
							}
, 							{
								"key" : 9500,
								"value" : [ "notes", 74, 76 ]
							}
, 							{
								"key" : 10000,
								"value" : [ "notes", 76, 78, "notes1", 65, 75, "notes2", 57, 77, "notes3", 48, 75 ]
							}
, 							{
								"key" : 10500,
								"value" : [ "notes", 73, 74, "notes1", 69, 78, "notes2", 54, 75, "notes3", 50, 77 ]
							}
, 							{
								"key" : 11250,
								"value" : [ "notes", 74, 79 ]
							}
, 							{
								"key" : 11500,
								"value" : [ "notes", 76, 80, "notes1", 65, 75, "notes2", 57, 77, "notes3", 48, 76 ]
							}
, 							{
								"key" : 12000,
								"value" : [ "notes", 78, 80, "notes1", 69, 78, "notes2", 61, 80, "notes3", 57, 82 ]
							}
, 							{
								"key" : 13000,
								"value" : [ "notes", 56, 77 ]
							}
, 							{
								"key" : 13250,
								"value" : [ "notes", 76, 79, "notes1", 67, 79, "notes2", 59, 76, "notes3", 52, 74 ]
							}
, 							{
								"key" : 13500,
								"value" : [ "notes", 73, 75, "notes1", 69, 79, "notes2", 49, 71 ]
							}
, 							{
								"key" : 14500,
								"value" : [ "notes", 71, 74, "notes1", 66, 75, "notes2", 57, 76 ]
							}
, 							{
								"key" : 16500,
								"value" : [ "notes", 73, 76, "notes1", 69, 76, "notes2", 54, 76, "notes3", 49, 76 ]
							}
, 							{
								"key" : 20000,
								"value" : [ "notes", 76, 76, "notes1", 67, 76, "notes2", 59, 76, "notes3", 52, 76 ]
							}
, 							{
								"key" : 20500,
								"value" : [ "notes", 78, 77, "notes1", 69, 77, "notes2", 61, 77, "notes3", 56, 78 ]
							}
, 							{
								"key" : 21000,
								"value" : [ "notes", 57, 78 ]
							}
, 							{
								"key" : 23000,
								"value" : [ "notes", 76, 76, "notes1", 65, 76, "notes2", 57, 76, "notes3", 48, 76 ]
							}
, 							{
								"key" : 24000,
								"value" : [ "notes", 74, 76, "notes1", 69, 77, "notes2", 54, 75, "notes3", 50, 77 ]
							}
, 							{
								"key" : 24500,
								"value" : [ "notes", 73, 75 ]
							}
, 							{
								"key" : 25000,
								"value" : [ "notes", 76, 78, "notes1", 67, 76, "notes2", 59, 78, "notes3", 52, 77 ]
							}
, 							{
								"key" : 25500,
								"value" : [ "notes", 78, 79, "notes1", 61, 78, "notes2", 56, 79 ]
							}
, 							{
								"key" : 26000,
								"value" : [ "notes", 76, 76, "notes1", 67, 76 ]
							}
, 							{
								"key" : 26500,
								"value" : [ "notes", 78, 78, "notes1", 69, 77 ]
							}
, 							{
								"key" : 27000,
								"value" : [ "notes", 57, 77 ]
							}
, 							{
								"key" : 28500,
								"value" : [ "notes", 76, 76, "notes1", 65, 76, "notes2", 57, 76, "notes3", 48, 75 ]
							}
, 							{
								"key" : 29000,
								"value" : [ "notes", 74, 78, "notes1", 69, 78, "notes2", 54, 75, "notes3", 50, 77 ]
							}
, 							{
								"key" : 29250,
								"value" : [ "notes", 73, 76 ]
							}
, 							{
								"key" : 30000,
								"value" : [ "notes", 76, 78, "notes1", 65, 75, "notes2", 57, 77, "notes3", 48, 76 ]
							}
, 							{
								"key" : 30500,
								"value" : [ "notes", 75, 76, "notes1", 66, 76, "notes2", 58, 77, "notes3", 54, 80 ]
							}
, 							{
								"key" : 31500,
								"value" : [ "notes", 59, 77 ]
							}
, 							{
								"key" : 32500,
								"value" : [ "notes", 70, 76, "notes1", 67, 76, "notes2", 58, 76, "notes3", 51, 76 ]
							}
, 							{
								"key" : 33500,
								"value" : [ "notes", 73, 77 ]
							}
, 							{
								"key" : 34500,
								"value" : [ "notes", 74, 77, "notes1", 66, 76, "notes2", 54, 76, "notes3", 51, 76 ]
							}
, 							{
								"key" : 35000,
								"value" : [ "notes", 71, 74 ]
							}
, 							{
								"key" : 36500,
								"value" : [ "notes", 70, 76, "notes1", 67, 76, "notes2", 58, 77, "notes3", 51, 76 ]
							}
, 							{
								"key" : 37500,
								"value" : [ "notes", 73, 77 ]
							}
 ]
					}
,
					"id" : "obj-28",
					"maxclass" : "newobj",
					"numinlets" : 1,
					"numoutlets" : 4,
					"outlettype" : [ "", "", "", "" ],
					"patching_rect" : [ 91.0, 551.0, 119.0, 22.0 ],
					"saved_object_attributes" : 					{
						"embed" : 1
					}
,
					"text" : "coll outro @embed 1"
				}

			}
, 			{
				"box" : 				{
					"id" : "obj-9",
					"maxclass" : "slider",
					"numinlets" : 1,
					"numoutlets" : 1,
					"outlettype" : [ "" ],
					"parameter_enable" : 0,
					"patching_rect" : [ 380.0, 131.0, 341.0, 36.0 ]
				}

			}
, 			{
				"box" : 				{
					"id" : "obj-5",
					"linecount" : 2,
					"maxclass" : "comment",
					"numinlets" : 1,
					"numoutlets" : 0,
					"patching_rect" : [ 273.0, 643.0, 108.0, 33.0 ],
					"text" : "Not all parts, notes 1,2,3"
				}

			}
, 			{
				"box" : 				{
					"id" : "obj-65",
					"maxclass" : "panel",
					"numinlets" : 1,
					"numoutlets" : 0,
					"patching_rect" : [ 394.0, 784.0, 123.0, 52.0 ]
				}

			}
, 			{
				"box" : 				{
					"angle" : 270.0,
					"bgcolor" : [ 0.2, 0.113725490196078, 0.627450980392157, 1.0 ],
					"id" : "obj-112",
					"maxclass" : "panel",
					"mode" : 0,
					"numinlets" : 1,
					"numoutlets" : 0,
					"patching_rect" : [ 61.0, 511.0, 205.0, 402.0 ],
					"proportion" : 0.5
				}

			}
 ],
		"lines" : [ 			{
				"patchline" : 				{
					"destination" : [ "obj-105", 0 ],
					"source" : [ "obj-101", 1 ]
				}

			}
, 			{
				"patchline" : 				{
					"destination" : [ "obj-107", 0 ],
					"source" : [ "obj-101", 0 ]
				}

			}
, 			{
				"patchline" : 				{
					"destination" : [ "obj-101", 0 ],
					"source" : [ "obj-103", 0 ]
				}

			}
, 			{
				"patchline" : 				{
					"destination" : [ "obj-167", 0 ],
					"source" : [ "obj-105", 0 ]
				}

			}
, 			{
				"patchline" : 				{
					"destination" : [ "obj-113", 1 ],
					"source" : [ "obj-107", 0 ]
				}

			}
, 			{
				"patchline" : 				{
					"destination" : [ "obj-28", 0 ],
					"source" : [ "obj-113", 0 ]
				}

			}
, 			{
				"patchline" : 				{
					"destination" : [ "obj-103", 0 ],
					"source" : [ "obj-116", 1 ]
				}

			}
, 			{
				"patchline" : 				{
					"destination" : [ "obj-167", 2 ],
					"source" : [ "obj-116", 2 ]
				}

			}
, 			{
				"patchline" : 				{
					"destination" : [ "obj-167", 1 ],
					"source" : [ "obj-116", 0 ]
				}

			}
, 			{
				"patchline" : 				{
					"destination" : [ "obj-116", 0 ],
					"source" : [ "obj-118", 0 ]
				}

			}
, 			{
				"patchline" : 				{
					"destination" : [ "obj-43", 1 ],
					"source" : [ "obj-128", 0 ]
				}

			}
, 			{
				"patchline" : 				{
					"destination" : [ "obj-46", 0 ],
					"source" : [ "obj-137", 0 ]
				}

			}
, 			{
				"patchline" : 				{
					"destination" : [ "obj-113", 0 ],
					"source" : [ "obj-167", 1 ]
				}

			}
, 			{
				"patchline" : 				{
					"destination" : [ "obj-128", 0 ],
					"source" : [ "obj-167", 0 ]
				}

			}
, 			{
				"patchline" : 				{
					"destination" : [ "obj-40", 0 ],
					"source" : [ "obj-28", 0 ]
				}

			}
, 			{
				"patchline" : 				{
					"destination" : [ "obj-137", 0 ],
					"source" : [ "obj-40", 0 ]
				}

			}
, 			{
				"patchline" : 				{
					"destination" : [ "obj-40", 1 ],
					"source" : [ "obj-42", 0 ]
				}

			}
, 			{
				"patchline" : 				{
					"destination" : [ "obj-118", 0 ],
					"source" : [ "obj-43", 0 ]
				}

			}
, 			{
				"patchline" : 				{
					"destination" : [ "obj-48", 1 ],
					"source" : [ "obj-45", 1 ]
				}

			}
, 			{
				"patchline" : 				{
					"destination" : [ "obj-48", 0 ],
					"source" : [ "obj-45", 0 ]
				}

			}
, 			{
				"patchline" : 				{
					"destination" : [ "obj-45", 1 ],
					"source" : [ "obj-46", 1 ]
				}

			}
, 			{
				"patchline" : 				{
					"destination" : [ "obj-45", 0 ],
					"source" : [ "obj-46", 0 ]
				}

			}
, 			{
				"patchline" : 				{
					"destination" : [ "obj-43", 0 ],
					"source" : [ "obj-47", 0 ]
				}

			}
, 			{
				"patchline" : 				{
					"destination" : [ "obj-43", 1 ],
					"source" : [ "obj-56", 0 ]
				}

			}
, 			{
				"patchline" : 				{
					"destination" : [ "obj-167", 3 ],
					"source" : [ "obj-57", 0 ]
				}

			}
, 			{
				"patchline" : 				{
					"destination" : [ "obj-41", 0 ],
					"source" : [ "obj-9", 0 ]
				}

			}
 ],
		"dependency_cache" : [  ],
		"autosave" : 0
	}

}
